<?xml version="1.0" encoding="UTF-8" standalone="no"?>
<!-- Generator: Adobe Illustrator 19.1.0, SVG Export Plug-In . SVG Version: 6.00 Build 0)  -->

<svg
   xmlns:dc="http://purl.org/dc/elements/1.1/"
   xmlns:cc="http://creativecommons.org/ns#"
   xmlns:rdf="http://www.w3.org/1999/02/22-rdf-syntax-ns#"
   xmlns:svg="http://www.w3.org/2000/svg"
   xmlns="http://www.w3.org/2000/svg"
   xmlns:sodipodi="http://sodipodi.sourceforge.net/DTD/sodipodi-0.dtd"
   xmlns:inkscape="http://www.inkscape.org/namespaces/inkscape"
   version="1.1"
   id="Layer_1"
   x="0px"
   y="0px"
   viewBox="0 0 167.27115 167.16742"
   xml:space="preserve"
   sodipodi:docname="BigCommerce-logomark-whitebg.svg"
   width="167.27115"
   height="167.16742"
   inkscape:version="0.92.3 (d244b95, 2018-08-02)"><metadata
   id="metadata17"><rdf:RDF><cc:Work
       rdf:about=""><dc:format>image/svg+xml</dc:format><dc:type
         rdf:resource="http://purl.org/dc/dcmitype/StillImage" /><dc:title></dc:title></cc:Work></rdf:RDF></metadata><defs
   id="defs15" /><sodipodi:namedview
   pagecolor="#ffffff"
   bordercolor="#666666"
   borderopacity="1"
   objecttolerance="10"
   gridtolerance="10"
   guidetolerance="10"
   inkscape:pageopacity="0"
   inkscape:pageshadow="2"
   inkscape:window-width="2945"
   inkscape:window-height="1515"
   id="namedview13"
   showgrid="false"
   fit-margin-top="0"
   fit-margin-left="0"
   fit-margin-right="0"
   fit-margin-bottom="0"
   inkscape:zoom="1.6856283"
   inkscape:cx="346.43579"
   inkscape:cy="-56.611543"
   inkscape:window-x="98"
   inkscape:window-y="41"
   inkscape:window-maximized="0"
   inkscape:current-layer="Layer_1" />
<style
   type="text/css"
   id="style2">
	.st0{fill:#34313F;}
</style>
<g
   id="g10"
   transform="translate(-222.1703,-284.03258)"
   style="fill:#e9ecef;fill-opacity:1">
	<path
   class="st0"
   d="m 310.3,379.2 h 21.1 c 6,0 9.8,-3.3 9.8,-8.6 0,-5 -3.8,-8.6 -9.8,-8.6 h -21.1 c -0.7,0 -1.3,0.6 -1.3,1.2 V 378 c 0.1,0.7 0.6,1.2 1.3,1.2 z"
   id="path4"
   inkscape:connector-curvature="0"
   style="fill:#e9ecef;fill-opacity:1" />
	<path
   class="st0"
   d="m 310.3,413.3 h 21.8 c 6.7,0 10.7,-3.4 10.7,-9.4 0,-5.2 -3.8,-9.4 -10.7,-9.4 h -21.8 c -0.7,0 -1.3,0.6 -1.3,1.2 V 412 c 0.1,0.8 0.6,1.3 1.3,1.3 z"
   id="path6"
   inkscape:connector-curvature="0"
   style="fill:#e9ecef;fill-opacity:1" />
	<path
   class="st0"
   d="m 387.5,284.4 -62.4,62.2 h 10.2 c 15.9,0 25.3,10 25.3,20.9 0,8.6 -5.8,14.9 -12,17.7 -1,0.4 -1,1.8 0.1,2.2 7.2,2.8 12.3,10.3 12.3,19.1 0,12.4 -8.3,22.3 -24.4,22.3 h -44.2 c -0.7,0 -1.3,-0.6 -1.3,-1.2 v -47.1 l -68.5,68.2 c -0.9,0.9 -0.3,2.5 1,2.5 h 164.7 c 0.6,0 1.1,-0.5 1.1,-1.1 V 285.3 c 0.3,-1.1 -1.1,-1.7 -1.9,-0.9 z"
   id="path8"
   inkscape:connector-curvature="0"
   style="fill:#e9ecef;fill-opacity:1" />
</g>
</svg>